<?xml version="1.0" encoding="utf-8"?>
<!-- Generator: Adobe Illustrator 24.0.0, SVG Export Plug-In . SVG Version: 6.00 Build 0)  -->
<svg version="1.1" id="Capa_1" xmlns="http://www.w3.org/2000/svg" xmlns:xlink="http://www.w3.org/1999/xlink" x="0px" y="0px"
	 viewBox="0 0 480 480" style="enable-background:new 0 0 480 480;" xml:space="preserve">
<style type="text/css">
	.st0{fill:#FFFFFF;}
</style>
<g>
	<g>
		<path class="st0" d="M273.6,119.4c8.2-7.5,13.4-18.2,13.4-30.1c0-22.5-18.3-40.8-40.8-40.8s-40.8,18.3-40.8,40.8
			c0,11.9,5.2,22.7,13.4,30.1c-24.2,4.7-42.5,26-42.5,51.5v23.3c0,3.2,2.6,5.8,5.8,5.8h128.3c3.2,0,5.8-2.6,5.8-5.8v-23.3
			C316.1,145.4,297.8,124.1,273.6,119.4z M217,89.3c0-16.1,13.1-29.2,29.2-29.2s29.2,13.1,29.2,29.2s-13.1,29.2-29.2,29.2
			S217,105.3,217,89.3z M304.5,188.4H187.8v-17.5c0-22.5,18.3-40.8,40.8-40.8h35c22.5,0,40.8,18.3,40.8,40.8V188.4z"/>
	</g>
</g>
<g>
	<g>
		<path class="st0" d="M154.3,373.1c8.2-7.5,13.4-18.2,13.4-30.1c0-22.5-18.3-40.8-40.8-40.8S86,320.5,86,343
			c0,11.9,5.2,22.7,13.4,30.1c-24.2,4.7-42.5,26-42.5,51.5V448c0,3.2,2.6,5.8,5.8,5.8H191c3.2,0,5.8-2.6,5.8-5.8v-23.3
			C196.9,399.1,178.5,377.8,154.3,373.1z M97.7,343c0-16.1,13.1-29.2,29.2-29.2S156,326.9,156,343s-13.1,29.2-29.2,29.2
			S97.7,359.1,97.7,343z M185.2,442.2H68.5v-17.5c0-22.5,18.3-40.8,40.8-40.8h35c22.5,0,40.8,18.3,40.8,40.8V442.2z"/>
	</g>
</g>
<g>
	<g>
		<path class="st0" d="M397.5,373.1c8.2-7.5,13.4-18.2,13.4-30.1c0-22.5-18.3-40.8-40.8-40.8s-40.8,18.3-40.8,40.8
			c0,11.9,5.2,22.7,13.4,30.1c-24.2,4.7-42.5,26-42.5,51.5V448c0,3.2,2.6,5.8,5.8,5.8h128.3c3.2,0,5.8-2.6,5.8-5.8v-23.3
			C440,399.1,421.7,377.8,397.5,373.1z M340.8,343c0-16.1,13.1-29.2,29.2-29.2s29.2,13.1,29.2,29.2s-13.1,29.2-29.2,29.2
			S340.8,359.1,340.8,343z M428.3,442.2H311.7v-17.5c0-22.5,18.3-40.8,40.8-40.8h35c22.5,0,40.8,18.3,40.8,40.8V442.2z"/>
	</g>
</g>
<g>
	<g>
		<path class="st0" d="M252.3,227.2c-1.6-1.9-3-3.5-4.1-4.9c-0.1-0.1-0.2-0.2-0.2-0.2c-0.6-0.5-1.4-0.4-1.9,0.2
			c-1.1,1.4-2.5,3-4.1,4.9c-7,8.1-16.7,19.3-16.7,28.7c0,6,2.4,11.5,6.4,15.5c4,3.9,9.4,6.4,15.5,6.4c6,0,11.5-2.4,15.5-6.4
			c4-4,6.4-9.4,6.4-15.5C269,246.6,259.3,235.3,252.3,227.2z M260.7,269.5c-3.5,3.5-8.3,5.7-13.6,5.7c-5.3,0-10.1-2.2-13.6-5.6
			c-3.4-3.4-5.6-8.3-5.6-13.6c0-8.4,9.3-19.2,16.1-27c1.1-1.3,2.2-2.5,3.1-3.7c1,1.2,2,2.4,3.1,3.7c6.7,7.8,16.1,18.5,16.1,27
			C266.3,261.2,264.2,266,260.7,269.5z"/>
	</g>
</g>
<g>
	<g>
		<path class="st0" d="M293.2,273.4c-1.6-1.9-3-3.5-4.1-4.9c-0.1-0.1-0.2-0.2-0.2-0.2c-0.6-0.5-1.4-0.4-1.9,0.2
			c-1.1,1.4-2.5,3-4.1,4.9c-7,8.1-16.7,19.3-16.7,28.7c0,6,2.4,11.5,6.4,15.5c4,3.9,9.4,6.4,15.5,6.4s11.5-2.4,15.5-6.4
			s6.4-9.4,6.4-15.5C309.9,292.7,300.2,281.5,293.2,273.4z M301.6,315.6c-3.5,3.5-8.3,5.7-13.6,5.7s-10.1-2.2-13.6-5.6
			c-3.4-3.4-5.6-8.3-5.6-13.6c0-8.4,9.3-19.2,16.1-27c1.1-1.3,2.2-2.5,3.1-3.7c1,1.2,2,2.4,3.1,3.7c6.7,7.8,16.1,18.5,16.1,27
			C307.2,307.4,305,312.1,301.6,315.6z"/>
	</g>
</g>
<g>
	<g>
		<path class="st0" d="M211.3,273.4c-1.6-1.9-3-3.5-4.1-4.9c-0.1-0.1-0.2-0.2-0.2-0.2c-0.6-0.5-1.4-0.4-1.9,0.2
			c-1.1,1.4-2.5,3-4.1,4.9c-7,8.1-16.7,19.3-16.7,28.7c0,6,2.4,11.5,6.4,15.5c4,3.9,9.4,6.4,15.5,6.4c6,0,11.5-2.4,15.5-6.4
			s6.4-9.4,6.4-15.5C228,292.7,218.3,281.5,211.3,273.4z M219.6,315.6c-3.5,3.5-8.3,5.7-13.6,5.7s-10.1-2.2-13.6-5.6
			c-3.4-3.4-5.6-8.3-5.6-13.6c0-8.4,9.3-19.2,16.1-27c1.1-1.3,2.2-2.5,3.1-3.7c1,1.2,2,2.4,3.1,3.7c6.7,7.8,16.1,18.5,16.1,27
			C225.3,307.4,223.1,312.1,219.6,315.6z"/>
	</g>
</g>
</svg>
