<?xml version="1.0" encoding="utf-8"?>
<!-- Generator: Adobe Illustrator 24.0.0, SVG Export Plug-In . SVG Version: 6.00 Build 0)  -->
<svg version="1.1" id="Camada_1" xmlns="http://www.w3.org/2000/svg" xmlns:xlink="http://www.w3.org/1999/xlink" x="0px" y="0px"
	 viewBox="0 0 511 512" style="enable-background:new 0 0 511 512;" xml:space="preserve">
<style type="text/css">
	.st0{fill:#FFFFFF;}
	.st1{fill:#3A484A;}
</style>
<path class="st0" d="M226.8,511c215.2,0,287-243.2,0-512C-60.2,267.8,11.6,511,226.8,511z"/>
<g>
	<path class="st1" d="M123.6,343.9c-4.3,0-7.7,3.5-7.7,7.7v18.7c0,4.3,3.5,7.7,7.7,7.7c4.3,0,7.7-3.5,7.7-7.7v-18.7
		C131.3,347.4,127.9,343.9,123.6,343.9z"/>
	<path class="st1" d="M329.9,343.9c-4.3,0-7.7,3.5-7.7,7.7v18.7c0,4.3,3.5,7.7,7.7,7.7c4.3,0,7.7-3.5,7.7-7.7v-18.7
		C337.7,347.4,334.2,343.9,329.9,343.9z"/>
	<path class="st1" d="M257.3,363.2c-3.2-2.8-8.1-2.5-10.9,0.7c-4.8,5.5-12,8.6-19.6,8.6s-14.9-3.1-19.6-8.6
		c-2.8-3.2-7.7-3.5-10.9-0.7s-3.5,7.7-0.7,10.9c7.7,8.8,19.1,13.9,31.3,13.9s23.6-5.1,31.3-13.9C260.9,370.9,260.5,366,257.3,363.2z
		"/>
</g>
</svg>
