<?xml version="1.0" encoding="utf-8"?>
<!-- Generator: Adobe Illustrator 24.0.0, SVG Export Plug-In . SVG Version: 6.00 Build 0)  -->
<svg version="1.1" id="Camada_1" xmlns="http://www.w3.org/2000/svg" xmlns:xlink="http://www.w3.org/1999/xlink" x="0px" y="0px"
	 viewBox="0 0 511 512" style="enable-background:new 0 0 511 512;" xml:space="preserve">
<style type="text/css">
	.st0{fill:#EE7269;}
	.st1{fill:#A5514A;}
	.st2{fill:#8CC04B;}
	.st3{fill:#618735;}
	.st4{fill:#3A484A;}
	.st5{fill:#EFEDEE;}
</style>
<path class="st0" d="M226.8,511c215.2,0,287-243.2,0-512C-60.2,267.8,11.6,511,226.8,511z"/>
<path class="st1" d="M242.2,13.8c-5-4.9-10.2-9.9-15.5-14.8c-287,268.8-215.2,512,0,512c5.2,0,10.4-0.1,15.5-0.4
	C43,499.4-19.9,270.1,242.2,13.8z"/>
<path class="st2" d="M475.4,191c0,54.1-43.9,98-98,98s-98-43.9-98-98c0-54.1,43.9-98,98-98S475.4,136.9,475.4,191z"/>
<path class="st3" d="M310.3,191c0-48.9,35.8-89.4,82.5-96.8c-5-0.8-10.2-1.2-15.5-1.2c-54.1,0-98,43.9-98,98c0,54.1,43.9,98,98,98
	c5.3,0,10.4-0.4,15.5-1.2C346.1,280.4,310.3,239.9,310.3,191z"/>
<g>
	<path class="st4" d="M123.6,343.9c-4.3,0-7.7,3.5-7.7,7.7v18.7c0,4.3,3.5,7.7,7.7,7.7c4.3,0,7.7-3.5,7.7-7.7v-18.7
		C131.3,347.4,127.9,343.9,123.6,343.9z"/>
	<path class="st4" d="M329.9,343.9c-4.3,0-7.7,3.5-7.7,7.7v18.7c0,4.3,3.5,7.7,7.7,7.7c4.3,0,7.7-3.5,7.7-7.7v-18.7
		C337.7,347.4,334.2,343.9,329.9,343.9z"/>
	<path class="st4" d="M257.3,363.2c-3.2-2.8-8.1-2.5-10.9,0.7c-4.8,5.5-12,8.6-19.6,8.6s-14.9-3.1-19.6-8.6
		c-2.8-3.2-7.7-3.5-10.9-0.7c-3.2,2.8-3.5,7.7-0.7,10.9c7.7,8.8,19.1,13.9,31.3,13.9s23.6-5.1,31.3-13.9
		C260.9,370.9,260.5,366,257.3,363.2z"/>
</g>
<path class="st5" d="M417.2,183.3h-32.1v-32.1c0-4.3-3.5-7.7-7.7-7.7c-4.3,0-7.7,3.5-7.7,7.7v32.1h-32.1c-4.3,0-7.7,3.5-7.7,7.7
	c0,4.3,3.5,7.7,7.7,7.7h32.1v32.1c0,4.3,3.5,7.7,7.7,7.7c4.3,0,7.7-3.5,7.7-7.7v-32.1h32.1c4.3,0,7.7-3.5,7.7-7.7
	C424.9,186.7,421.5,183.3,417.2,183.3z"/>
</svg>
