<?xml version="1.0" encoding="utf-8"?>
<!-- Generator: Adobe Illustrator 24.0.0, SVG Export Plug-In . SVG Version: 6.00 Build 0)  -->
<svg version="1.1" id="Layer_1" xmlns="http://www.w3.org/2000/svg" xmlns:xlink="http://www.w3.org/1999/xlink" x="0px" y="0px"
	 viewBox="0 0 512 512" style="enable-background:new 0 0 512 512;" xml:space="preserve">
<style type="text/css">
	.st0{fill:#FFFFFF;}
</style>
<g>
	<g>
		<path class="st0" d="M512,140.8V22.3c0-12-9.8-21.7-21.7-21.7H372.9H255.5H139.1H21.7C9.8,0.5,0,10.3,0,22.3v118.5
			c0,34,23.3,63.3,55.4,71.6V468H21.7C9.8,468,0,477.8,0,489.7s9.8,21.7,21.7,21.7h55.4h121.7H312h121.8h55.4
			c12,0,22.8-9.8,22.8-21.7s-9.8-21.7-21.7-21.7h-34.8V212.3C487.1,203.9,511.1,174.6,512,140.8z M468.5,140.8
			c0,16.4-12.5,29.8-28.5,31.4c-2-0.6-4.1-0.9-6.3-0.9c-2.4,0-4.6,0.4-6.8,1.1H425c-15.2,0-28-10.8-30.9-25.2
			c0.2-2.1,0.4-4.2,0.5-6.3V42.9c9.2,0,73.9,0,73.9,0L468.5,140.8L468.5,140.8z M277.2,42.9c0,0,71.8,0,73.9,0v97.8
			c0,2.3,0.1,4.6,0.3,6.8c-3.1,14.1-15.7,24.7-30.8,24.7h-12c-17.4,0-31.5-14.1-31.5-31.5V42.9z M160.9,140.8V42.9
			c2.1,0,70.8,0,72.8,0v97.8c0,2.3,0.1,4.6,0.3,6.8c-3.1,14.1-15.7,24.7-30.8,24.7h-12c-15.2,0-28-10.9-30.9-25.2
			C160.7,145,160.8,142.9,160.9,140.8z M42.4,140.8V42.9h75v97.8c0,17.4-14.1,31.5-31.5,31.5h-1.9c-2.1-0.7-4.4-1.1-6.8-1.1
			c-2.2,0-4.3,0.3-6.3,0.9C54.9,170.6,42.4,157.1,42.4,140.8z M290.2,468h-69.6V333.2h69.6V468z M333.7,468V311.4
			c0-12-9.8-21.7-21.7-21.7H198.9c-12,0-21.7,9.8-21.7,21.7V468H98.9V213.5c15.2-2.8,28.9-10.4,39.5-21.1
			c13.3,13.7,32,22.3,52.9,22.3h12c20.1,0,38.5-8.4,52-21.8c13.3,13.4,31.8,21.8,52.4,21.8h12c20.8,0,39.3-8.5,52.8-22.1
			c10.5,10.7,24.2,18.2,39.6,20.9V468L333.7,468L333.7,468z"/>
	</g>
</g>
</svg>
